<?xml version="1.0" encoding="UTF-8" standalone="no"?>
<!-- Created with Inkscape (http://www.inkscape.org/) -->

<svg
   sodipodi:docname="Gunship 2.svg"
   id="svg8"
   version="1.1"
   viewBox="0 0 79.364599 79.36465"
   height="79.364647mm"
   width="79.364601mm"
   inkscape:version="1.1 (c68e22c387, 2021-05-23)"
   inkscape:export-filename="C:\Users\SN\GitHub\Supernova-Shipyard-Source\Vectors - Ships\Gunship 3.png"
   inkscape:export-xdpi="96"
   inkscape:export-ydpi="96"
   xmlns:inkscape="http://www.inkscape.org/namespaces/inkscape"
   xmlns:sodipodi="http://sodipodi.sourceforge.net/DTD/sodipodi-0.dtd"
   xmlns="http://www.w3.org/2000/svg"
   xmlns:svg="http://www.w3.org/2000/svg"
   xmlns:rdf="http://www.w3.org/1999/02/22-rdf-syntax-ns#"
   xmlns:cc="http://creativecommons.org/ns#"
   xmlns:dc="http://purl.org/dc/elements/1.1/">
  <defs
     id="defs2" />
  <sodipodi:namedview
     id="base"
     pagecolor="#ffffff"
     bordercolor="#666666"
     borderopacity="1.0"
     inkscape:pageopacity="0.0"
     inkscape:pageshadow="2"
     inkscape:zoom="0.70000002"
     inkscape:cx="496.42856"
     inkscape:cy="417.85713"
     inkscape:document-units="mm"
     inkscape:current-layer="layer1"
     showgrid="false"
     inkscape:window-width="1920"
     inkscape:window-height="1017"
     inkscape:window-x="1912"
     inkscape:window-y="-8"
     inkscape:window-maximized="1"
     inkscape:pagecheckerboard="0" />
  <metadata
     id="metadata5">
    <rdf:RDF>
      <cc:Work
         rdf:about="">
        <dc:format>image/svg+xml</dc:format>
        <dc:type
           rdf:resource="http://purl.org/dc/dcmitype/StillImage" />
      </cc:Work>
    </rdf:RDF>
  </metadata>
  <g
     inkscape:label="Layer 1"
     inkscape:groupmode="layer"
     id="layer1"
     transform="translate(1410.16, 809.002)">
    <path
       style="fill:#000000;stroke-width:0.0992061"
       d="m -1377.5213,-738.69 c 0,-0.0683 -0.4457,-5.59151 -0.9895,-12.27401 l -0.9888,-12.14999 -6.153,-6.15378 -6.1534,-6.15377 v -12.32603 -12.32601 l 7.1677,7.8e-4 7.1676,7.9e-4 1.7408,5.18229 1.7406,5.18229 h 3.5127 3.5126 l 1.7406,-5.18229 1.7407,-5.18229 7.1676,-7.9e-4 7.1677,-7.8e-4 v 12.32601 12.32603 l -6.1533,6.15377 -6.1531,6.15378 -0.9888,12.14999 c -0.5437,6.6825 -0.9891,12.2058 -0.9895,12.27401 0,0.098 -1.4763,0.12405 -7.0445,0.12405 -5.5684,0 -7.0439,-0.0259 -7.0447,-0.12405 z"
       id="path206" />
    <path
       style="fill:#000000;stroke-width:0.0992061"
       d="m -1340.7149,-769.31979 v -39.68233 h 4.9602 4.9603 v 39.68233 39.68232 h -4.9603 -4.9602 z"
       id="path204" />
    <path
       style="fill:#000000;stroke-width:0.0992061"
       d="m -1410.159,-769.31979 v -39.68233 h 4.9603 4.9603 v 39.68233 39.68232 h -4.9603 -4.9603 z"
       id="path22" />
  </g>
</svg>
