<?xml version="1.0" encoding="UTF-8" standalone="no"?>
<svg
   sodipodi:docname="Antimatter Torpedo 3.svg"
   id="svg8"
   version="1.1"
   viewBox="0 0 31.785027 31.786318"
   height="31.78632mm"
   width="31.78503mm"
   inkscape:version="1.1 (c68e22c387, 2021-05-23)"
   inkscape:export-filename="C:\Users\SN\GitHub\SuperNova-Shipyard-Source\Oulines - Projectiles\Antimatter Torpedo 4.png"
   inkscape:export-xdpi="96"
   inkscape:export-ydpi="96"
   xmlns:inkscape="http://www.inkscape.org/namespaces/inkscape"
   xmlns:sodipodi="http://sodipodi.sourceforge.net/DTD/sodipodi-0.dtd"
   xmlns="http://www.w3.org/2000/svg"
   xmlns:svg="http://www.w3.org/2000/svg"
   xmlns:rdf="http://www.w3.org/1999/02/22-rdf-syntax-ns#"
   xmlns:cc="http://creativecommons.org/ns#"
   xmlns:dc="http://purl.org/dc/elements/1.1/">
  <defs
     id="defs2" />
  <sodipodi:namedview
     id="base"
     pagecolor="#ffffff"
     bordercolor="#666666"
     borderopacity="1.0"
     inkscape:pageopacity="0.0"
     inkscape:pageshadow="2"
     inkscape:zoom="0.65779745"
     inkscape:cx="96.534275"
     inkscape:cy="102.61517"
     inkscape:document-units="mm"
     inkscape:current-layer="layer1"
     showgrid="false"
     inkscape:window-width="1920"
     inkscape:window-height="1017"
     inkscape:window-x="1912"
     inkscape:window-y="-8"
     inkscape:window-maximized="1"
     inkscape:document-rotation="0"
     inkscape:pagecheckerboard="0" />
  <metadata
     id="metadata5">
    <rdf:RDF>
      <cc:Work
         rdf:about="">
        <dc:format>image/svg+xml</dc:format>
        <dc:type
           rdf:resource="http://purl.org/dc/dcmitype/StillImage" />
      </cc:Work>
    </rdf:RDF>
  </metadata>
  <g
     inkscape:label="Layer 1"
     inkscape:groupmode="layer"
     id="layer1"
     transform="translate(294.833, 798.432)">
    <path
       style="fill:#000000;stroke-width:0.0397314"
       d="m -294.83253,-782.53937 v -15.89294 h 2.11667 2.11666 l -9.6e-4,15.88265 -9.8e-4,15.88267 -2.11551,0.0105 -2.1155,0.0105 z"
       id="path102" />
    <path
       style="fill:#000000;stroke-width:0.0397314"
       d="m -285.11818,-769.90548 c -1.10285,-0.14067 -2.00868,-0.95114 -2.28669,-2.0458 -0.0802,-0.31544 -0.0808,-0.3953 -0.0808,-10.55911 -10e-6,-5.63269 0.012,-10.30809 0.0256,-10.38977 0.10125,-0.58873 0.35392,-1.06542 0.79983,-1.50852 0.3593,-0.35706 0.64849,-0.52877 1.16464,-0.69155 l 0.298,-0.094 h 6.25769 6.25773 l 0.29797,0.0933 c 0.49931,0.15634 0.82096,0.3483 1.17353,0.70034 0.43838,0.43773 0.67948,0.88849 0.77624,1.45117 0.0516,0.30032 0.0518,20.57316 10e-5,20.83918 -0.19626,1.01113 -0.9001,1.78868 -1.93004,2.1322 l -0.27813,0.0927 -6.11865,0.005 c -3.36526,0.003 -6.22592,-0.009 -6.35704,-0.0253 z"
       id="path206" />
    <path
       style="fill:#000000;stroke-width:0.0397314"
       d="m -267.26723,-766.69679 c -0.0151,-0.0426 -0.0105,-31.4734 0.003,-31.66598 0.005,-0.0653 0.1339,-0.0695 2.11098,-0.0695 h 2.10575 v 15.8926 15.89258 h -2.10151 c -1.64574,0 -2.10516,-0.0105 -2.11835,-0.0496 z"
       id="path204" />
    <text
       x="-291.15158"
       y="-728.87842"
       id="text28"><tspan
         sodipodi:role="line"
         style="font-style:normal;font-weight:normal;font-size:26.4583px;text-align:center;text-anchor:start;fill:#000000;fill-opacity:1;stroke:none"
         dy="14.816666"
         id="tspan26"
         x="-291.15158"
         y="-728.87842">6085.21 px<tspan
   style="font-size:65%;baseline-shift:super"
   id="tspan24">2</tspan></tspan></text>
  </g>
</svg>
