<?xml version="1.0" encoding="UTF-8" standalone="no"?>
<svg
   sodipodi:docname="raven rocket 3.svg"
   id="svg8"
   version="1.1"
   viewBox="0 0 21.068839 21.068835"
   height="21.068836mm"
   width="21.06884mm"
   inkscape:version="1.1 (c68e22c387, 2021-05-23)"
   inkscape:export-filename="C:\Users\SN\GitHub\Supernova-Shipyard-Source\Vectors - Outlines Ships\raven rocket 4.png"
   inkscape:export-xdpi="96"
   inkscape:export-ydpi="96"
   xmlns:inkscape="http://www.inkscape.org/namespaces/inkscape"
   xmlns:sodipodi="http://sodipodi.sourceforge.net/DTD/sodipodi-0.dtd"
   xmlns="http://www.w3.org/2000/svg"
   xmlns:svg="http://www.w3.org/2000/svg"
   xmlns:rdf="http://www.w3.org/1999/02/22-rdf-syntax-ns#"
   xmlns:cc="http://creativecommons.org/ns#"
   xmlns:dc="http://purl.org/dc/elements/1.1/">
  <defs
     id="defs2" />
  <sodipodi:namedview
     id="base"
     pagecolor="#ffffff"
     bordercolor="#666666"
     borderopacity="1.0"
     inkscape:pageopacity="0.0"
     inkscape:pageshadow="2"
     inkscape:zoom="0.98994949"
     inkscape:cx="430.83006"
     inkscape:cy="131.82491"
     inkscape:document-units="mm"
     inkscape:current-layer="layer1"
     showgrid="false"
     inkscape:window-width="1858"
     inkscape:window-height="1057"
     inkscape:window-x="54"
     inkscape:window-y="-8"
     inkscape:window-maximized="1"
     inkscape:document-rotation="0"
     inkscape:pagecheckerboard="0" />
  <metadata
     id="metadata5">
    <rdf:RDF>
      <cc:Work
         rdf:about="">
        <dc:format>image/svg+xml</dc:format>
        <dc:type
           rdf:resource="http://purl.org/dc/dcmitype/StillImage" />
      </cc:Work>
    </rdf:RDF>
  </metadata>
  <g
     inkscape:label="Layer 1"
     inkscape:groupmode="layer"
     id="layer1"
     transform="translate(-211.19422,74.697949)">
    <path
       style="fill:#000000;stroke-width:0.026336"
       d="m 211.19422,-64.16353 v -10.534419 h 2.38341 2.38342 v 10.534419 10.534418 h -2.38342 -2.38341 z"
       id="path102" />
    <path
       style="fill:#000000;stroke-width:0.026336"
       d="m 220.49085,-54.893424 c 0,-0.01458 0.0398,-0.177539 0.0884,-0.36212 l 0.0884,-0.335603 -0.0595,-2.172723 c -0.10599,-3.869754 -0.12831,-5.761033 -0.0936,-7.927151 0.0307,-1.917417 0.0323,-1.952364 0.16155,-3.700215 0.0719,-0.970483 0.14082,-1.883027 0.15342,-2.027876 l 0.0229,-0.263359 0.41046,-0.882259 c 0.42393,-0.911234 0.46921,-0.981774 0.53746,-0.837374 0.0157,0.03325 0.20316,0.433776 0.41653,0.890047 l 0.38796,0.829586 0.1131,1.487986 c 0.13333,1.754209 0.13549,1.782935 0.16818,2.225395 0.0562,0.759834 0.0887,4.242425 0.0567,6.065059 -0.032,1.82496 -0.12268,5.563056 -0.14621,6.024666 -0.0123,0.242251 -0.006,0.29446 0.0781,0.61213 0.0504,0.191012 0.0916,0.359227 0.0916,0.373811 0,0.01742 -0.42449,0.02652 -1.23779,0.02652 -0.81331,0 -1.23779,-0.0091 -1.23779,-0.02652 z"
       id="path206" />
    <path
       style="fill:#000000;stroke-width:0.026336"
       d="m 227.49623,-64.16353 v -10.534419 h 2.38342 2.38341 v 10.534419 10.534418 h -2.38341 -2.38342 z"
       id="path204" />
  </g>
</svg>
