<?xml version="1.0" encoding="UTF-8" standalone="no"?>
<svg
   sodipodi:docname="Polaron Rocket 3.svg"
   id="svg8"
   version="1.1"
   viewBox="0 0 12.58068 12.580686"
   height="12.580687mm"
   width="12.58068mm"
   inkscape:version="1.1 (c68e22c387, 2021-05-23)"
   inkscape:export-filename="C:\Users\SN\GitHub\SuperNova-Shipyard-Source\Oulines - Projectiles\Polaron Rocket 4.png"
   inkscape:export-xdpi="96"
   inkscape:export-ydpi="96"
   xmlns:inkscape="http://www.inkscape.org/namespaces/inkscape"
   xmlns:sodipodi="http://sodipodi.sourceforge.net/DTD/sodipodi-0.dtd"
   xmlns="http://www.w3.org/2000/svg"
   xmlns:svg="http://www.w3.org/2000/svg"
   xmlns:rdf="http://www.w3.org/1999/02/22-rdf-syntax-ns#"
   xmlns:cc="http://creativecommons.org/ns#"
   xmlns:dc="http://purl.org/dc/elements/1.1/">
  <defs
     id="defs2" />
  <sodipodi:namedview
     id="base"
     pagecolor="#ffffff"
     bordercolor="#666666"
     borderopacity="1.0"
     inkscape:pageopacity="0.0"
     inkscape:pageshadow="2"
     inkscape:zoom="1.979899"
     inkscape:cx="73.488597"
     inkscape:cy="-11.364216"
     inkscape:document-units="mm"
     inkscape:current-layer="layer1"
     showgrid="false"
     inkscape:window-width="1858"
     inkscape:window-height="1057"
     inkscape:window-x="54"
     inkscape:window-y="-8"
     inkscape:window-maximized="1"
     inkscape:document-rotation="0"
     inkscape:pagecheckerboard="0" />
  <metadata
     id="metadata5">
    <rdf:RDF>
      <cc:Work
         rdf:about="">
        <dc:format>image/svg+xml</dc:format>
        <dc:type
           rdf:resource="http://purl.org/dc/dcmitype/StillImage" />
      </cc:Work>
    </rdf:RDF>
  </metadata>
  <g
     inkscape:label="Layer 1"
     inkscape:groupmode="layer"
     id="layer1"
     transform="translate(-236.391, -8.73563)">
    <path
       style="fill:#000000;stroke-width:0.0157258"
       d="M 236.39059,15.025974 V 8.7356313 h 1.13226 1.13227 v 6.2903427 6.290344 h -1.13227 -1.13226 z"
       id="path105" />
    <path
       style="fill:#000000;stroke-width:0.0157258"
       d="m 240.88031,20.650501 c -0.14673,-0.0486 -0.23466,-0.125951 -0.29697,-0.26121 -0.0321,-0.0695 -0.0332,-0.100657 -0.0431,-1.078021 -0.0139,-1.379718 -0.0381,-1.647901 -0.22565,-2.501089 -0.038,-0.173357 -0.0836,-0.399809 -0.10094,-0.503228 -0.028,-0.166042 -0.0377,-0.254924 -0.055,-0.502548 -0.008,-0.09978 0.0182,-0.351614 0.0471,-0.471777 0.031,-0.128921 0.0954,-0.278876 0.16293,-0.378786 0.0264,-0.03904 0.0478,-0.07389 0.0478,-0.07744 0,-0.0037 -0.039,-0.06368 -0.0866,-0.133608 -0.17876,-0.262551 -0.31439,-0.615354 -0.33452,-0.870257 -0.0186,-0.235833 0.008,-0.468036 0.0849,-0.784716 0.28046,-1.133078 0.98065,-2.364094 1.84357,-3.241253 0.28656,-0.2912783 0.44165,-0.3938265 0.65887,-0.4356256 0.17182,-0.033064 0.36387,0.023357 0.56026,0.1645951 0.20629,0.1483486 0.59686,0.5754945 0.90721,0.9921605 0.66701,0.895506 1.14718,1.943771 1.29611,2.829596 0.0293,0.174289 0.0334,0.458955 0.009,0.590778 -0.0427,0.225604 -0.17452,0.534913 -0.32152,0.754529 l -0.0868,0.129782 0.0618,0.104319 c 0.22299,0.37611 0.24957,0.817839 0.0943,1.566822 -0.0251,0.12109 -0.0737,0.35462 -0.10794,0.518956 -0.14153,0.679238 -0.16912,1.059931 -0.17327,2.390329 -0.001,0.44111 -0.009,0.826786 -0.0152,0.857059 -0.0326,0.140707 -0.12805,0.256503 -0.2614,0.317304 -0.10782,0.04913 -0.27094,0.04889 -0.36635,-5.71e-4 -0.10266,-0.05322 -0.18413,-0.135069 -0.22543,-0.22643 l -0.0373,-0.08243 -0.002,-0.841333 c -0.003,-1.469761 0.0305,-1.873041 0.23722,-2.834435 0.11477,-0.533408 0.11429,-0.58931 -0.001,-0.193072 -0.0822,0.281943 -0.12482,0.49564 -0.17868,0.896654 -0.0776,0.577463 -0.16004,0.866578 -0.32749,1.147988 -0.12216,0.205262 -0.2099,0.283033 -0.39057,0.346142 l -0.10794,0.0377 -0.009,0.720174 c -0.009,0.717547 -0.009,0.720476 -0.0455,0.803325 -0.0754,0.166766 -0.27041,0.282438 -0.44618,0.264594 -0.16263,-0.01652 -0.30996,-0.120644 -0.37537,-0.265319 -0.0373,-0.08233 -0.0373,-0.0833 -0.0418,-0.802611 -0.003,-0.547239 -0.01,-0.721509 -0.0236,-0.725708 -0.22702,-0.06584 -0.33502,-0.143164 -0.4498,-0.322098 -0.19528,-0.304424 -0.28051,-0.587186 -0.3642,-1.208274 -0.0265,-0.196691 -0.0622,-0.424846 -0.0794,-0.507014 -0.0393,-0.188361 -0.17738,-0.660461 -0.18364,-0.627966 -0.002,0.01338 0.0278,0.176057 0.0675,0.361522 0.13237,0.618124 0.16387,0.802748 0.20374,1.194269 0.0378,0.372302 0.058,1.076855 0.0526,1.847789 l -0.005,0.723389 -0.0419,0.07864 c -0.10428,0.195895 -0.33535,0.300998 -0.52427,0.238421 z"
       id="path209" />
    <path
       style="fill:#000000;stroke-width:0.0157258"
       d="M 246.70675,15.025974 V 8.7356313 h 1.13226 1.13226 v 6.2903427 6.290344 h -1.13226 -1.13226 z"
       id="path207" />
  </g>
</svg>
