<?xml version="1.0" encoding="UTF-8" standalone="no"?>
<svg
   sodipodi:docname="Polaron Ultra Torpedo 3.svg"
   id="svg8"
   version="1.1"
   viewBox="0 0 52.911498 52.911496"
   height="52.911499mm"
   width="52.911499mm"
   inkscape:version="1.1 (c68e22c387, 2021-05-23)"
   inkscape:export-filename="C:\Users\SN\GitHub\SuperNova-Shipyard-Source\Oulines - Projectiles\Polaron Ultra Torpedo  4.png"
   inkscape:export-xdpi="96"
   inkscape:export-ydpi="96"
   xmlns:inkscape="http://www.inkscape.org/namespaces/inkscape"
   xmlns:sodipodi="http://sodipodi.sourceforge.net/DTD/sodipodi-0.dtd"
   xmlns="http://www.w3.org/2000/svg"
   xmlns:svg="http://www.w3.org/2000/svg"
   xmlns:rdf="http://www.w3.org/1999/02/22-rdf-syntax-ns#"
   xmlns:cc="http://creativecommons.org/ns#"
   xmlns:dc="http://purl.org/dc/elements/1.1/">
  <defs
     id="defs2" />
  <sodipodi:namedview
     id="base"
     pagecolor="#ffffff"
     bordercolor="#666666"
     borderopacity="1.0"
     inkscape:pageopacity="0.0"
     inkscape:pageshadow="2"
     inkscape:zoom="0.7"
     inkscape:cx="13.571429"
     inkscape:cy="319.28571"
     inkscape:document-units="mm"
     inkscape:current-layer="layer1"
     showgrid="false"
     inkscape:window-width="1858"
     inkscape:window-height="1057"
     inkscape:window-x="54"
     inkscape:window-y="-8"
     inkscape:window-maximized="1"
     inkscape:document-rotation="0"
     inkscape:pagecheckerboard="0" />
  <metadata
     id="metadata5">
    <rdf:RDF>
      <cc:Work
         rdf:about="">
        <dc:format>image/svg+xml</dc:format>
        <dc:type
           rdf:resource="http://purl.org/dc/dcmitype/StillImage" />
      </cc:Work>
    </rdf:RDF>
  </metadata>
  <g
     inkscape:label="Layer 1"
     inkscape:groupmode="layer"
     id="layer1"
     transform="translate(124.001, 267.466)">
    <path
       style="fill:#000000;stroke-width:0.0661392"
       d="m -124.00052,-241.00988 v -26.45575 h 2.81092 2.81093 v 26.45575 26.45575 h -2.81093 -2.81092 z"
       id="path105" />
    <path
       style="fill:#000000;stroke-width:0.0661392"
       d="m -97.829147,-218.93585 c -0.402227,-1.61563 -0.626907,-3.1239 -0.869509,-5.83682 -0.09033,-1.0102 -0.357415,-5.22396 -0.373082,-5.88639 -0.0022,-0.15084 -0.05667,0.0624 -0.123502,0.49605 -0.111379,0.7225 -0.231602,1.12436 -0.336303,1.12436 -0.08411,0 -0.19298,-0.35154 -0.261425,-0.84525 -0.09111,-0.65634 -0.194425,-2.88049 -0.206725,-4.4459 -0.0078,-1.14549 -0.01511,-1.22315 -0.06378,-0.69447 -0.17039,1.89422 -0.21603,2.33466 -0.32898,3.17469 -0.19557,1.45471 -0.45924,2.48883 -0.70337,2.75857 -0.0998,0.11011 -0.1175,0.11124 -0.22565,0.0133 -0.0646,-0.0583 -0.14717,-0.24474 -0.18356,-0.41392 -0.0786,-0.36652 -0.19629,-0.67849 -0.20308,-0.53909 -0.008,0.18398 -0.33973,0.82588 -0.48202,0.93545 -0.10978,0.0843 -0.16768,0.0921 -0.2596,0.0347 -0.088,-0.055 -0.13817,-0.0541 -0.19512,0.002 -0.14418,0.14418 -0.37243,-0.0926 -0.51265,-0.53165 -0.30361,-0.95033 -0.41318,-2.29485 -0.39713,-4.87257 0.0126,-1.78343 0.0373,-2.72435 0.15034,-5.39036 l 0.0393,-0.92593 -0.19318,0.72798 c -0.54734,2.06271 -1.19275,2.82113 -1.55155,1.8233 l -0.12127,-0.33731 -0.2007,0.30299 c -0.52335,0.79011 -0.97748,0.59334 -1.16583,-0.50514 -0.16069,-0.93727 -0.0792,-2.53537 0.30851,-6.05482 l 0.18314,-1.66199 -0.21238,-0.0768 c -0.27588,-0.0995 -0.47441,-0.5033 -0.56322,-1.14494 -0.0366,-0.26449 -0.0746,-0.48878 -0.084,-0.49845 -0.009,-0.009 -0.12759,0.16119 -0.26253,0.37966 -0.3269,0.52959 -0.79507,0.99877 -1.18386,1.18639 -0.28421,0.13717 -0.34708,0.14518 -0.59631,0.0753 -0.20624,-0.0578 -0.32853,-0.0591 -0.47094,-0.004 -0.38288,0.14569 -0.72217,-0.0532 -0.92679,-0.54287 -0.23934,-0.57287 -0.0573,-2.21683 0.46682,-4.2176 0.40616,-1.55032 1.34446,-4.81346 1.51217,-5.25905 0.59642,-1.58452 1.77221,-3.29508 3.25183,-4.73076 3.64317,-3.53497 7.947273,-4.42288 11.864698,-2.44755 1.364604,0.68807 2.296832,1.37391 3.508578,2.58121 1.541535,1.5359 2.536032,2.99729 3.151572,4.63113 0.240232,0.63764 1.452012,4.97413 1.709562,6.11787 0.499616,2.21877 0.489516,3.30258 -0.03518,3.76973 -0.158011,0.14052 -0.685645,0.17041 -0.81027,0.0459 -0.04,-0.04 -0.134674,-0.0273 -0.259149,0.0347 -0.252633,0.12601 -0.463731,0.0733 -0.901792,-0.22458 -0.331288,-0.22543 -0.827737,-0.80712 -1.059787,-1.24188 l -0.107335,-0.20118 -0.08133,0.5159 c -0.107845,0.68423 -0.299836,1.07619 -0.576089,1.17608 l -0.212364,0.0768 0.183128,1.66197 c 0.387811,3.51945 0.469233,5.11756 0.308504,6.05482 -0.188362,1.09848 -0.642473,1.29525 -1.165808,0.50514 l -0.200714,-0.30301 -0.122516,0.34037 c -0.146508,0.40753 -0.333038,0.52763 -0.574055,0.36969 -0.237747,-0.15568 -0.672591,-1.09871 -0.936709,-2.03114 l -0.234166,-0.82673 0.036,0.76059 c 0.169729,3.58785 0.208015,6.90241 0.096,8.30743 -0.148178,1.85957 -0.471328,2.81248 -0.879448,2.59406 -0.08466,-0.0453 -0.146831,-0.0447 -0.192911,7.8e-4 -0.157514,0.1575 -0.541381,-0.36051 -0.725399,-0.97965 -0.01507,-0.0536 -0.08093,0.11034 -0.144672,0.36377 -0.0636,0.25355 -0.163018,0.51331 -0.220833,0.57724 -0.0972,0.10745 -0.114003,0.10834 -0.223833,0.008 -0.130938,-0.1185 -0.333518,-0.68525 -0.482185,-1.34871 -0.154353,-0.68876 -0.30632,-1.83545 -0.468961,-3.53844 l -0.15168,-1.58735 -0.0076,1.22357 c -0.01124,1.51919 -0.114752,3.7648 -0.207965,4.45334 -0.06862,0.50765 -0.171381,0.83782 -0.260659,0.83782 -0.103501,0 -0.223318,-0.41049 -0.328558,-1.12439 l -0.112002,-0.76058 -0.04676,0.89285 c -0.221993,4.23287 -0.451761,6.89234 -0.774319,8.96189 -0.153341,0.98326 -0.643463,3.07549 -0.720586,3.07549 -0.02845,0 -0.157024,-0.42412 -0.286181,-0.94248 z"
       id="path215" />
    <path
       style="fill:#000000;stroke-width:0.0661392"
       d="m -76.710867,-241.00988 v -26.45575 h 2.810925 2.810921 v 26.45575 26.45575 h -2.810921 -2.810925 z"
       id="path213" />
    <text
       x="26.171853"
       y="48.53015000000002"
       transform="translate(-124.001, -267.466)"
       id="text155"><tspan
         sodipodi:role="line"
         style="fill:#000000;fill-opacity:1.0;font-size:26.458331833186836;font-style:normal;font-weight:normal;stroke:none;text-align:center;text-anchor:start;vertical-align:bottom"
         dy="14.816665916593418"
         id="tspan153">9101.43 px<tspan
   style="font-size:65%;baseline-shift:super"
   id="tspan151">2</tspan></tspan></text>
  </g>
</svg>
