<?xml version="1.0" encoding="UTF-8" standalone="no"?>
<svg
   sodipodi:docname="Polaron Torpedo 3.svg"
   id="svg8"
   version="1.1"
   viewBox="0 0 26.35922 26.359219"
   height="26.359221mm"
   width="26.359221mm"
   inkscape:version="1.1 (c68e22c387, 2021-05-23)"
   inkscape:export-filename="C:\Users\SN\GitHub\SuperNova-Shipyard-Source\Oulines - Projectiles\Polaron Torpedo  4.png"
   inkscape:export-xdpi="96"
   inkscape:export-ydpi="96"
   xmlns:inkscape="http://www.inkscape.org/namespaces/inkscape"
   xmlns:sodipodi="http://sodipodi.sourceforge.net/DTD/sodipodi-0.dtd"
   xmlns="http://www.w3.org/2000/svg"
   xmlns:svg="http://www.w3.org/2000/svg"
   xmlns:rdf="http://www.w3.org/1999/02/22-rdf-syntax-ns#"
   xmlns:cc="http://creativecommons.org/ns#"
   xmlns:dc="http://purl.org/dc/elements/1.1/">
  <defs
     id="defs2" />
  <sodipodi:namedview
     id="base"
     pagecolor="#ffffff"
     bordercolor="#666666"
     borderopacity="1.0"
     inkscape:pageopacity="0.0"
     inkscape:pageshadow="2"
     inkscape:zoom="0.9899495"
     inkscape:cx="28.789347"
     inkscape:cy="75.256364"
     inkscape:document-units="mm"
     inkscape:current-layer="layer1"
     showgrid="false"
     inkscape:window-width="1920"
     inkscape:window-height="1017"
     inkscape:window-x="1912"
     inkscape:window-y="-8"
     inkscape:window-maximized="1"
     inkscape:document-rotation="0"
     inkscape:pagecheckerboard="0" />
  <metadata
     id="metadata5">
    <rdf:RDF>
      <cc:Work
         rdf:about="">
        <dc:format>image/svg+xml</dc:format>
        <dc:type
           rdf:resource="http://purl.org/dc/dcmitype/StillImage" />
      </cc:Work>
    </rdf:RDF>
  </metadata>
  <g
     inkscape:label="Layer 1"
     inkscape:groupmode="layer"
     id="layer1"
     transform="translate(-104.775, 153.616)">
    <path
       style="fill:#000000;stroke-width:0.0329491"
       d="m 104.77526,-140.43665 v -13.17961 h 0.7084 0.70841 v 13.17961 13.17961 h -0.70841 -0.7084 z"
       id="path105" />
    <path
       style="fill:#000000;stroke-width:0.0329491"
       d="m 116.8346,-129.54477 -1.03789,-0.10739 -1.00495,-0.30448 -1.00494,-0.30447 -0.9612,-0.50939 -0.9612,-0.5094 -0.76863,-0.62775 c -0.42274,-0.34527 -0.81087,-0.66708 -0.86249,-0.71515 -0.0516,-0.0481 -0.39413,-0.45304 -0.76113,-0.89999 l -0.66724,-0.81263 -0.51212,-0.96662 -0.5121,-0.96662 -0.30412,-1.00494 -0.3041,-1.00495 -0.10739,-1.07735 -0.10739,-1.07735 0.10984,-1.09728 c 0.0998,-0.99726 0.12058,-1.13183 0.22808,-1.47621 0.0651,-0.2084 0.20038,-0.65321 0.30071,-0.98846 0.17651,-0.58983 0.19901,-0.64082 0.69514,-1.57527 l 0.51273,-0.9657 0.62461,-0.76412 c 0.34354,-0.42026 0.66396,-0.80637 0.71205,-0.85801 0.0481,-0.0516 0.45345,-0.39471 0.90083,-0.76237 l 0.8134,-0.66847 0.96584,-0.51173 0.96584,-0.51172 1.00495,-0.30343 1.00495,-0.30342 1.0822,-0.10795 1.08221,-0.10794 1.07596,0.10861 1.07594,0.10861 0.72488,0.22046 c 0.39868,0.12125 0.85091,0.25734 1.00495,0.30241 0.1974,0.0577 0.56436,0.23277 1.2433,0.59296 l 0.96324,0.511 0.82302,0.67406 c 0.86976,0.71234 0.85321,0.69539 1.76617,1.80841 0.39706,0.48408 0.49896,0.63396 0.7504,1.10379 0.76217,1.42419 0.7163,1.31864 1.04516,2.40529 l 0.30413,1.00494 0.10705,1.0858 0.10706,1.08579 -0.10706,1.07236 -0.10705,1.07237 -0.30406,1.00494 -0.30406,1.00495 -0.50966,0.96254 -0.50966,0.96253 -0.59934,0.73434 c -0.32963,0.40388 -0.68832,0.82374 -0.79708,0.93301 -0.10872,0.10928 -0.52573,0.46629 -0.92662,0.79336 l -0.72891,0.59467 -0.96797,0.51347 c -0.93543,0.49621 -0.98846,0.51961 -1.57753,0.69621 -0.33525,0.10049 -0.78006,0.23549 -0.98848,0.29997 -0.387,0.11977 -0.59819,0.1504 -1.81218,0.26286 -0.29902,0.0277 -0.61038,0.0566 -0.69193,0.0643 -0.0816,0.008 -0.61533,-0.0344 -1.18617,-0.0934 z"
       id="path209" />
    <path
       style="fill:#000000;stroke-width:0.0329491"
       d="m 129.71767,-140.43665 v -13.17961 h 0.7084 0.70841 v 13.17961 13.17961 h -0.70841 -0.7084 z"
       id="path207" />
    <text
       x="118.17094"
       y="-114.84495"
       id="text282"><tspan
         sodipodi:role="line"
         style="font-style:normal;font-weight:normal;font-size:26.4583px;text-align:center;text-anchor:start;fill:#000000;fill-opacity:1;stroke:none"
         dy="14.816666"
         id="tspan280"
         x="118.17094"
         y="-114.84495">5391.11 px<tspan
   style="font-size:65%;baseline-shift:super"
   id="tspan278">2</tspan></tspan></text>
  </g>
</svg>
