<?xml version="1.0" encoding="UTF-8" standalone="no"?>
<svg
   xmlns:dc="http://purl.org/dc/elements/1.1/"
   xmlns:cc="http://creativecommons.org/ns#"
   xmlns:rdf="http://www.w3.org/1999/02/22-rdf-syntax-ns#"
   xmlns:svg="http://www.w3.org/2000/svg"
   xmlns="http://www.w3.org/2000/svg"
   xmlns:sodipodi="http://sodipodi.sourceforge.net/DTD/sodipodi-0.dtd"
   xmlns:inkscape="http://www.inkscape.org/namespaces/inkscape"
   sodipodi:docname="scout ship fed-3.svg"
   id="svg8"
   version="1.1"
   viewBox="0 0 86.612398 86.612397"
   height="86.612396mm"
   width="86.612396mm"
   inkscape:version="1.0 (4035a4fb49, 2020-05-01)"
   inkscape:export-filename="D:\GitHub\wills-spaceships\Outlines Ships\scout ship-fed 4.png"
   inkscape:export-xdpi="96"
   inkscape:export-ydpi="96">
  <defs
     id="defs2" />
  <sodipodi:namedview
     inkscape:document-rotation="0"
     inkscape:window-maximized="1"
     inkscape:window-y="-8"
     inkscape:window-x="68"
     inkscape:window-height="1057"
     inkscape:window-width="1844"
     showgrid="false"
     inkscape:current-layer="layer1"
     inkscape:document-units="mm"
     inkscape:cy="446.03683"
     inkscape:cx="633.31851"
     inkscape:zoom="0.49497475"
     inkscape:pageshadow="2"
     inkscape:pageopacity="0.0"
     borderopacity="1.0"
     bordercolor="#666666"
     pagecolor="#ffffff"
     id="base" />
  <metadata
     id="metadata5">
    <rdf:RDF>
      <cc:Work
         rdf:about="">
        <dc:format>image/svg+xml</dc:format>
        <dc:type
           rdf:resource="http://purl.org/dc/dcmitype/StillImage" />
        <dc:title />
      </cc:Work>
    </rdf:RDF>
  </metadata>
  <g
     transform="translate(180.65201,119.60702)"
     id="layer1"
     inkscape:groupmode="layer"
     inkscape:label="Layer 1">
    <path
       inkscape:connector-curvature="0"
       id="path836"
       d="m -180.65201,-76.300824 v -43.306196 h 7.14552 7.14553 v 43.306196 43.306198 h -7.14553 -7.14552 z"
       style="fill:#000000;stroke-width:0.108265" />
    <path
       inkscape:connector-curvature="0"
       id="path834"
       d="m -108.33065,-76.300824 v -43.306196 h 7.14553 7.145507 v 43.306196 43.306198 h -7.145507 -7.14553 z"
       style="fill:#000000;stroke-width:0.108265" />
    <path
       id="path832"
       d="m -143.89005,-116.14256 c -0.20747,0 -0.25514,0.11995 -0.46326,1.16389 -0.30283,1.51922 -4.1252,20.279508 -4.2685,20.949856 -0.10433,0.487918 -0.14978,0.538065 -0.86972,0.958534 l -0.75949,0.443579 -2.04792,4.13006 -2.04787,4.130048 -0.0167,0.811976 c -0.0433,2.093421 0.004,5.608211 0.0922,6.92905 l 0.0979,1.461586 2.02238,3.789247 2.02252,3.789233 0.87225,-0.01118 c 0.47973,-0.007 0.89991,-0.03923 0.93378,-0.07317 0.0337,-0.0338 -0.13784,-0.69385 -0.38142,-1.466669 -0.24362,-0.772791 -0.44292,-1.434133 -0.44292,-1.469659 0,-0.03561 0.073,-0.06466 0.16237,-0.06466 0.12276,0 0.16241,-0.132242 0.16241,-0.541246 0,-0.510624 0.0159,-0.54129 0.28101,-0.54129 0.27016,0 0.27981,0.02081 0.24376,0.54129 l -0.0376,0.541413 h 0.6342 c 0.63072,-6.8e-5 0.63387,-0.0027 0.56283,-0.284677 -0.0394,-0.156513 -0.0404,-0.424518 -0.003,-0.5955 0.0545,-0.248245 0.12651,-0.310582 0.35731,-0.30941 0.15899,6.43e-4 1.55591,0.609813 3.1041,1.353266 l 2.81485,1.351659 v 2.300695 2.300875 l -0.8391,0.03157 c -0.7501,0.02835 -0.83897,0.05418 -0.83897,0.243594 0,0.186929 -0.0767,0.212051 -0.64958,0.212051 h -0.64958 v 0.378881 c 0,0.374834 -0.005,0.379024 -0.46993,0.379024 -0.73489,0 -2.09865,0.387959 -3.06113,0.870821 -1.59066,0.79804 -2.70269,2.043219 -3.038,3.401972 -0.16321,0.661411 -0.19435,0.707327 -0.47847,0.707327 -0.29393,0 -0.30479,0.02052 -0.3362,0.622617 l -0.0325,0.622478 -0.50323,0.03253 -0.50305,0.0324 -0.55254,1.240026 -0.55252,1.240026 v 7.172171 l -1.8e-4,7.172157 0.56269,1.27209 0.56269,1.272202 h 0.46056 0.46037 l 0.18843,0.597747 0.1884,0.597733 2.05439,-0.02932 2.05426,-0.02932 0.18046,-0.541428 c 0.17464,-0.524015 0.19489,-0.54235 0.63183,-0.574594 l 0.45137,-0.03324 v -4.960611 -4.960428 l 0.54872,-2.151778 c 0.30181,-1.18343 0.59595,-2.334308 0.65372,-2.557614 l 0.105,-0.405988 h 0.86195 0.86194 v 1.732301 1.732135 h 5.19676 5.19673 v -1.732135 -1.732301 h 0.86195 0.86195 l 0.10473,0.405988 c 0.0575,0.223306 0.35172,1.368389 0.6537,2.544612 l 0.54908,2.138611 v 4.973597 4.973611 l 0.45133,0.03324 c 0.43695,0.03226 0.45721,0.05054 0.63184,0.574594 l 0.18031,0.541428 2.05442,0.02932 2.05438,0.02932 0.18844,-0.597733 0.18838,-0.597747 h 0.4604 0.4604 l 0.56267,-1.272202 0.56284,-1.27209 -1.3e-4,-7.172157 -1.8e-4,-7.172171 -0.55253,-1.240026 -0.55237,-1.240026 -0.50321,-0.0324 -0.50306,-0.03253 -0.0323,-0.622478 c -0.0314,-0.602258 -0.0423,-0.622617 -0.33638,-0.622617 -0.28387,0 -0.31521,-0.04608 -0.47689,-0.701156 -0.33944,-1.375481 -1.43369,-2.602535 -3.03942,-3.408143 -0.96249,-0.482862 -2.3264,-0.870821 -3.06129,-0.870821 -0.46482,0 -0.46976,-0.0043 -0.46976,-0.379024 v -0.378881 h -0.6496 c -0.57276,0 -0.64959,-0.02514 -0.64959,-0.212051 0,-0.189497 -0.0891,-0.215316 -0.8391,-0.243594 l -0.83912,-0.03157 v -2.301351 -2.30131 l 3.50266,-1.677434 c 2.6695,-1.278458 3.60305,-1.677422 3.9247,-1.677422 0.30291,0 0.42199,-0.0458 0.42199,-0.162405 0,-0.124842 0.1391,-0.162406 0.60185,-0.162406 0.33104,0 0.58085,0.03644 0.55526,0.08127 -0.14454,0.25224 -1.60117,5.032444 -1.54931,5.084308 0.0342,0.03421 0.45488,0.06745 0.93458,0.07401 l 0.87211,0.01118 2.04235,-3.849672 2.04219,-3.849657 0.0375,-4.606459 0.0373,-4.60632 -2.02029,-4.065826 -2.02047,-4.065656 -0.75744,-0.442476 c -0.71765,-0.419129 -0.76338,-0.469541 -0.86763,-0.957249 -0.15396,-0.720019 -4.10688,-20.128641 -4.32197,-21.220581 -0.15499,-0.78688 -0.20368,-0.89322 -0.40853,-0.89322 -0.19448,0 -0.38622,0.31893 -1.17154,1.94881 l -0.93885,1.94876 h -4.43503 -4.43504 l -0.93902,-1.94876 c -0.78295,-1.62498 -0.97739,-1.94881 -1.17024,-1.94881 z"
       style="fill:#000000;stroke-width:0.108265" />
  </g>
</svg>
