<?xml version="1.0" encoding="UTF-8" standalone="no"?>
<!-- Created with Inkscape (http://www.inkscape.org/) -->

<svg
   xmlns:dc="http://purl.org/dc/elements/1.1/"
   xmlns:cc="http://creativecommons.org/ns#"
   xmlns:rdf="http://www.w3.org/1999/02/22-rdf-syntax-ns#"
   xmlns:svg="http://www.w3.org/2000/svg"
   xmlns="http://www.w3.org/2000/svg"
   xmlns:sodipodi="http://sodipodi.sourceforge.net/DTD/sodipodi-0.dtd"
   xmlns:inkscape="http://www.inkscape.org/namespaces/inkscape"
   sodipodi:docname="terrapin-civilian 3.svg"
   id="svg8"
   version="1.1"
   viewBox="0 0 107.25241 107.25241"
   height="107.25241mm"
   width="107.25241mm"
   inkscape:version="0.92.4 (5da689c313, 2019-01-14)"
   inkscape:export-filename="D:\GitHub\Novalike-Art-Pack-Source\Outlines Ships\terrapin-civilian 4.png"
   inkscape:export-xdpi="96"
   inkscape:export-ydpi="96">
  <defs
     id="defs2" />
  <sodipodi:namedview
     id="base"
     pagecolor="#ffffff"
     bordercolor="#666666"
     borderopacity="1.0"
     inkscape:pageopacity="0.0"
     inkscape:pageshadow="2"
     inkscape:zoom="0.49497476"
     inkscape:cx="331.52196"
     inkscape:cy="333.37945"
     inkscape:document-units="mm"
     inkscape:current-layer="layer1"
     showgrid="false"
     inkscape:window-width="1920"
     inkscape:window-height="1017"
     inkscape:window-x="-8"
     inkscape:window-y="-8"
     inkscape:window-maximized="1" />
  <metadata
     id="metadata5">
    <rdf:RDF>
      <cc:Work
         rdf:about="">
        <dc:format>image/svg+xml</dc:format>
        <dc:type
           rdf:resource="http://purl.org/dc/dcmitype/StillImage" />
        <dc:title />
      </cc:Work>
    </rdf:RDF>
  </metadata>
  <g
     inkscape:label="Layer 1"
     inkscape:groupmode="layer"
     id="layer1"
     transform="translate(-659.27555,-111.53676)">
    <path
       style="fill:#000000;stroke-width:0.13406551"
       d="m 659.27555,165.16298 v -53.62622 h 1.54176 1.54174 v 53.62622 53.62619 h -1.54174 -1.54176 z"
       id="path833"
       inkscape:connector-curvature="0" />
    <path
       style="fill:#000000;stroke-width:0.13406551"
       d="m 763.44445,165.16298 v -53.62622 h 1.54176 1.54175 v 53.62622 53.62619 h -1.54175 -1.54176 z"
       id="path831"
       inkscape:connector-curvature="0" />
    <path
       style="fill:#000000;stroke-width:0.13406551"
       d="m 681.06119,191.842 c -0.0489,-0.079 -0.84833,-0.13405 -1.94542,-0.13405 h -1.86256 l -0.40865,-0.59395 c -0.39137,-0.56884 -0.40861,-0.65302 -0.40861,-1.99173 v -1.39781 l -0.97199,-0.0871 c -1.3546,-0.1214 -1.51992,-0.33764 -1.64422,-2.15072 -0.11351,-1.65529 -0.11614,-13.46538 -0.004,-15.22918 0.049,-0.7659 0.16811,-1.44028 0.29894,-1.69165 0.20367,-0.39134 0.2761,-0.42293 1.13525,-0.49497 0.50474,-0.0424 0.97794,-0.11415 1.05156,-0.15966 0.0746,-0.0462 0.13385,-0.6761 0.13385,-1.42482 0,-1.27666 0.0199,-1.37109 0.40865,-1.93604 l 0.40863,-0.59394 h 3.52608 c 1.93933,0 3.99171,0.0394 4.56084,0.0874 0.99094,0.0837 1.04811,0.10713 1.34988,0.55119 l 0.31508,0.46373 0.31267,-0.4825 0.31266,-0.48249 1.83693,-9.5e-4 1.83699,-9.4e-4 0.40863,0.59393 c 0.38179,0.55489 0.40865,0.67387 0.40865,1.80987 0,1.20764 0.003,1.21595 0.33514,1.21595 0.18435,0 0.33517,0.0511 0.33517,0.11352 0,0.0625 0.3318,0.45059 0.73735,0.86266 0.71569,0.72721 0.73737,0.77116 0.73737,1.49537 v 0.7461 h 0.48179 c 0.36903,0 0.49818,0.0627 0.5519,0.26812 0.0527,0.20149 0.18285,0.26814 0.52369,0.26814 0.2495,0 0.4536,-0.0568 0.4536,-0.12579 0,-0.32748 -1.55168,-6.24641 -2.20952,-8.4283 -0.40696,-1.34978 -0.73992,-2.51112 -0.73992,-2.58075 0,-0.0711 0.59396,-0.12666 1.35501,-0.12666 1.03215,0 1.33822,-0.04 1.28463,-0.16758 -0.0386,-0.0923 -1.00075,-2.36961 -2.1379,-5.06097 -2.02794,-4.79974 -2.9149,-7.15271 -2.9149,-7.73269 0,-0.24584 0.21677,-0.37511 1.38669,-0.82703 1.61255,-0.62285 4.72373,-1.61486 6.45612,-2.05857 l 1.20661,-0.30901 -0.0439,-0.55699 c -0.0351,-0.44656 0.005,-0.57132 0.20107,-0.6292 0.91842,-0.27081 5.02034,-0.95331 6.54604,-1.08916 1.51831,-0.13519 1.54174,-0.14537 1.54174,-0.67053 0,-0.4281 0.0412,-0.47325 0.56979,-0.62383 0.79486,-0.22644 7.99539,-0.22777 8.78129,-9.4e-4 0.52823,0.15199 0.56977,0.19762 0.56977,0.62547 0,0.52522 0.0238,0.53562 1.54176,0.67015 1.13518,0.10064 4.65161,0.65382 5.76481,0.90693 l 0.80439,0.18289 0.067,0.64805 0.0669,0.64804 1.20658,0.31832 c 2.3867,0.62966 7.13312,2.23673 7.40291,2.50648 0.16947,0.16948 -1.07998,3.52409 -3.0268,8.12638 l -2.12667,5.02746 1.32197,0.0382 c 0.92721,0.0268 1.32187,0.0869 1.32161,0.20112 -2.8e-4,0.0895 -0.36506,1.39963 -0.81081,2.91125 -0.66023,2.23907 -1.58937,5.76341 -2.05877,7.80931 -0.0803,0.34976 -0.0598,0.36865 0.39976,0.36865 0.37157,0 0.50065,-0.0625 0.55444,-0.2681 0.052,-0.1988 0.18286,-0.26815 0.50616,-0.26815 0.39973,0 0.44297,-0.042 0.51916,-0.50274 0.0458,-0.2765 0.0837,-0.64331 0.0846,-0.81513 9.6e-4,-0.35975 1.46137,-1.89969 1.80065,-1.89969 0.17677,0 0.21181,-0.19229 0.21181,-1.16133 0,-1.07041 0.0326,-1.21213 0.4162,-1.8099 l 0.41617,-0.64855 h 1.84969 1.8497 l 0.28878,0.48945 0.28879,0.48943 0.31871,-0.46898 c 0.30598,-0.45035 0.35991,-0.4725 1.35345,-0.55649 0.56914,-0.0482 2.62152,-0.0874 4.56084,-0.0874 h 3.52608 l 0.40864,0.59394 c 0.38871,0.56496 0.40863,0.65938 0.40863,1.93602 0,0.74873 0.0593,1.3787 0.13385,1.42483 0.0737,0.0455 0.54683,0.1174 1.05157,0.15968 0.85914,0.0721 0.93159,0.10361 1.13526,0.49495 0.13083,0.25138 0.25,0.92575 0.29896,1.69165 0.11412,1.78667 0.11062,13.59467 -0.004,15.21644 -0.1272,1.79053 -0.25565,1.96665 -1.56438,2.14505 l -0.98358,0.13406 -0.0384,1.39062 c -0.0357,1.29616 -0.0658,1.43047 -0.44216,1.97745 l -0.40376,0.58686 h -1.86257 c -1.09708,0 -1.89661,0.0551 -1.94541,0.13408 -0.0884,0.14287 -3.14089,0.18692 -3.64184,0.0526 -0.1596,-0.0429 -0.4596,-0.34587 -0.66666,-0.67345 -0.20716,-0.32771 -0.51574,-0.63055 -0.68608,-0.6733 -0.45874,-0.11514 -1.10393,-1.12808 -1.11243,-1.74646 -0.006,-0.50455 -0.0104,-0.50766 -0.21747,-0.21046 -0.20018,0.28698 -0.29605,0.30159 -1.97043,0.30006 l -1.75999,-9.6e-4 -0.50275,-0.72427 c -0.46915,-0.67582 -0.50281,-0.79002 -0.50358,-1.70774 l -7.5e-4,-0.98349 -0.63599,-0.6703 c -0.34981,-0.36869 -0.8019,-0.80567 -1.00468,-0.97111 -0.20277,-0.1654 -0.36869,-0.39164 -0.36869,-0.50272 -2e-5,-0.17244 -0.35168,-0.20201 -2.40281,-0.20201 h -2.40279 l -0.15486,0.46923 -0.15485,0.46923 h -2.12994 c -1.99273,0 -2.13919,0.0173 -2.27344,0.26814 -0.14132,0.26409 -0.28071,0.26812 -9.25051,0.26812 -8.96981,0 -9.10919,-0.004 -9.25052,-0.26812 -0.13429,-0.25092 -0.28071,-0.26814 -2.27999,-0.26814 h -2.13652 l -0.11276,-0.4357 -0.11275,-0.43571 -2.37441,-0.0367 c -2.24446,-0.0346 -2.37978,-0.0223 -2.47181,0.22327 -0.0536,0.14296 -0.31129,0.43091 -0.57276,0.63992 -0.26144,0.20901 -0.69884,0.62865 -0.97197,0.93253 -0.47821,0.53203 -0.49659,0.58925 -0.49659,1.54416 0,0.85535 -0.0496,1.06499 -0.36124,1.5255 -0.60205,0.88979 -0.54436,0.86902 -2.41353,0.86902 h -1.72137 l -0.22857,-0.36868 -0.22859,-0.36868 -0.004,0.57914 c -0.004,0.69498 -0.62113,1.69105 -1.12564,1.81767 -0.19603,0.0493 -0.4637,0.31638 -0.67049,0.66922 -0.19088,0.3257 -0.4804,0.62381 -0.64998,0.66925 -0.51274,0.13736 -3.56761,0.0969 -3.65744,-0.0484 z"
       id="path827"
       inkscape:connector-curvature="0" />
  </g>
</svg>
