<?xml version="1.0" encoding="UTF-8" standalone="no"?>
<!-- Created with Inkscape (http://www.inkscape.org/) -->

<svg
   inkscape:export-ydpi="96"
   inkscape:export-xdpi="96"
   inkscape:export-filename="C:\Users\SN\GitHub\Supernova-Shipyard-Source\Vectors - Ships\Destroyer 3.png"
   inkscape:version="1.1 (c68e22c387, 2021-05-23)"
   width="175.80589mm"
   height="175.80586mm"
   viewBox="0 0 175.80589 175.80586"
   version="1.1"
   id="svg8"
   sodipodi:docname="Destroyer 2.svg"
   xmlns:inkscape="http://www.inkscape.org/namespaces/inkscape"
   xmlns:sodipodi="http://sodipodi.sourceforge.net/DTD/sodipodi-0.dtd"
   xmlns="http://www.w3.org/2000/svg"
   xmlns:svg="http://www.w3.org/2000/svg"
   xmlns:rdf="http://www.w3.org/1999/02/22-rdf-syntax-ns#"
   xmlns:cc="http://creativecommons.org/ns#"
   xmlns:dc="http://purl.org/dc/elements/1.1/">
  <defs
     id="defs2" />
  <sodipodi:namedview
     id="base"
     pagecolor="#ffffff"
     bordercolor="#666666"
     borderopacity="1.0"
     inkscape:pageopacity="0.0"
     inkscape:pageshadow="2"
     inkscape:zoom="0.175"
     inkscape:cx="1900"
     inkscape:cy="785.7143"
     inkscape:document-units="mm"
     inkscape:current-layer="layer1"
     showgrid="false"
     inkscape:window-width="1920"
     inkscape:window-height="1017"
     inkscape:window-x="1912"
     inkscape:window-y="-8"
     inkscape:window-maximized="1"
     inkscape:pagecheckerboard="0" />
  <metadata
     id="metadata5">
    <rdf:RDF>
      <cc:Work
         rdf:about="">
        <dc:format>image/svg+xml</dc:format>
        <dc:type
           rdf:resource="http://purl.org/dc/dcmitype/StillImage" />
      </cc:Work>
    </rdf:RDF>
  </metadata>
  <g
     inkscape:label="Layer 1"
     inkscape:groupmode="layer"
     id="layer1"
     transform="translate(1517.4867,386.90585)">
    <path
       style="fill:#000000;stroke-width:0.219756"
       d="m -1517.4867,-299.0029 v -87.90295 h 10.9879 10.9877 v 87.90295 87.90292 h -10.9877 -10.9879 z"
       id="path102" />
    <path
       style="fill:#000000;stroke-width:0.219756"
       d="m -1452.4382,-264.72035 -11.4276,-22.85435 v -22.79947 -22.79946 l -11.4817,-11.48309 -11.4814,-11.4831 h 23.2101 23.2103 l 0.7739,3.24142 c 0.4257,1.78277 1.6458,6.92509 2.7114,11.42739 l 1.9371,8.18596 h 5.4024 5.4024 l 1.9372,-8.18596 c 1.0654,-4.5023 2.2855,-9.64462 2.7111,-11.42739 l 0.7739,-3.24142 h 23.2103 23.2102 l -11.4814,11.4831 -11.4816,11.48309 v 22.79946 22.79947 l -11.4276,22.85435 -11.4276,22.85436 h -11.4269 -11.4271 z"
       id="path206" />
    <path
       style="fill:#000000;stroke-width:0.219756"
       d="m -1363.6565,-299.0029 v -87.90295 h 10.9878 10.9879 v 87.90295 87.90292 h -10.9879 -10.9878 z"
       id="path204" />
  </g>
</svg>
