<?xml version="1.0" encoding="UTF-8" standalone="no"?>
<!-- Created with Inkscape (http://www.inkscape.org/) -->

<svg
   inkscape:export-ydpi="96"
   inkscape:export-xdpi="96"
   inkscape:export-filename="C:\Users\SN\GitHub\Supernova-Shipyard-Source\Vectors - Ships\Corvette 3.png"
   inkscape:version="1.1 (c68e22c387, 2021-05-23)"
   width="110.05404mm"
   height="110.05407mm"
   viewBox="0 0 110.05404 110.05407"
   version="1.1"
   id="svg8"
   sodipodi:docname="Corvette 2.svg"
   xmlns:inkscape="http://www.inkscape.org/namespaces/inkscape"
   xmlns:sodipodi="http://sodipodi.sourceforge.net/DTD/sodipodi-0.dtd"
   xmlns="http://www.w3.org/2000/svg"
   xmlns:svg="http://www.w3.org/2000/svg"
   xmlns:rdf="http://www.w3.org/1999/02/22-rdf-syntax-ns#"
   xmlns:cc="http://creativecommons.org/ns#"
   xmlns:dc="http://purl.org/dc/elements/1.1/">
  <defs
     id="defs2" />
  <sodipodi:namedview
     id="base"
     pagecolor="#ffffff"
     bordercolor="#666666"
     borderopacity="1.0"
     inkscape:pageopacity="0.0"
     inkscape:pageshadow="2"
     inkscape:zoom="0.35"
     inkscape:cx="21.428571"
     inkscape:cy="221.42857"
     inkscape:document-units="mm"
     inkscape:current-layer="layer1"
     showgrid="false"
     inkscape:window-width="1920"
     inkscape:window-height="1017"
     inkscape:window-x="-8"
     inkscape:window-y="-8"
     inkscape:window-maximized="1"
     inkscape:pagecheckerboard="0" />
  <metadata
     id="metadata5">
    <rdf:RDF>
      <cc:Work
         rdf:about="">
        <dc:format>image/svg+xml</dc:format>
        <dc:type
           rdf:resource="http://purl.org/dc/dcmitype/StillImage" />
      </cc:Work>
    </rdf:RDF>
  </metadata>
  <g
     inkscape:label="Layer 1"
     inkscape:groupmode="layer"
     id="layer1"
     transform="translate(1004.9628,365.30538)">
    <path
       style="fill:#000000;stroke-width:0.137568"
       d="m -958.40049,-289.93136 c -0.90556,-12.34009 -1.68395,-22.49716 -1.72969,-22.57128 -0.0463,-0.0749 -4.49139,2.06955 -10.00766,4.82789 -5.45848,2.72945 -9.9556,4.96262 -9.99362,4.96262 -0.0382,0 -0.0691,-3.38957 -0.0691,-7.53237 v -7.53237 l 8.0477,-4.02316 8.0477,-4.02314 v -1.99504 -1.99504 l -8.0477,-4.02315 -8.0477,-4.02315 v -7.53237 c 0,-4.14281 0.0304,-7.53238 0.0674,-7.53238 0.037,0 4.58856,2.25956 10.11454,5.02122 l 10.04719,5.02122 h 2.51015 2.51014 l 1.23238,3.71432 1.23238,3.71432 h 2.55073 2.55074 l 1.23237,-3.71432 1.23239,-3.71432 h 2.51013 2.51015 l 10.04723,-5.02122 c 5.52598,-2.76166 10.07751,-5.02122 10.11455,-5.02122 0.0371,0 0.0674,3.38957 0.0674,7.53238 v 7.53237 l -8.0477,4.02315 -8.0477,4.02315 v 1.99504 1.99504 l 8.0477,4.02314 8.0477,4.02316 v 7.53237 c 0,4.1428 -0.0312,7.53237 -0.0691,7.53237 -0.0382,0 -4.53518,-2.23317 -9.99367,-4.96262 -5.51627,-2.75834 -9.96141,-4.90276 -10.00766,-4.82789 -0.0457,0.0741 -0.82409,10.23119 -1.72968,22.57128 l -1.64647,22.43653 h -6.81825 -6.81822 z"
       id="path126" />
    <path
       style="fill:#000000;stroke-width:0.137568"
       d="m -908.66547,-310.27835 v -55.02703 h 6.87834 6.87837 v 55.02703 55.02704 h -6.87837 -6.87834 z"
       id="path124" />
    <path
       style="fill:#000000;stroke-width:0.137568"
       d="m -1004.9628,-310.27835 v -55.02703 h 6.87838 6.87838 v 55.02703 55.02704 h -6.87838 -6.87838 z"
       id="path102" />
  </g>
</svg>
