<?xml version="1.0" encoding="UTF-8" standalone="no"?>
<!-- Created with Inkscape (http://www.inkscape.org/) -->

<svg
   sodipodi:docname="Fighter 2.svg"
   id="svg8"
   version="1.1"
   viewBox="0 0 67.720701 67.720749"
   height="67.720749mm"
   width="67.720703mm"
   inkscape:version="1.1 (c68e22c387, 2021-05-23)"
   inkscape:export-filename="C:\Users\SN\GitHub\Supernova-Shipyard-Source\Vectors - Ships\Fighter 3.png"
   inkscape:export-xdpi="96"
   inkscape:export-ydpi="96"
   xmlns:inkscape="http://www.inkscape.org/namespaces/inkscape"
   xmlns:sodipodi="http://sodipodi.sourceforge.net/DTD/sodipodi-0.dtd"
   xmlns="http://www.w3.org/2000/svg"
   xmlns:svg="http://www.w3.org/2000/svg"
   xmlns:rdf="http://www.w3.org/1999/02/22-rdf-syntax-ns#"
   xmlns:cc="http://creativecommons.org/ns#"
   xmlns:dc="http://purl.org/dc/elements/1.1/">
  <defs
     id="defs2" />
  <sodipodi:namedview
     id="base"
     pagecolor="#ffffff"
     bordercolor="#666666"
     borderopacity="1.0"
     inkscape:pageopacity="0.0"
     inkscape:pageshadow="2"
     inkscape:zoom="1.4"
     inkscape:cx="313.21429"
     inkscape:cy="248.21429"
     inkscape:document-units="mm"
     inkscape:current-layer="layer1"
     showgrid="false"
     inkscape:window-width="1920"
     inkscape:window-height="1017"
     inkscape:window-x="1912"
     inkscape:window-y="-8"
     inkscape:window-maximized="1"
     inkscape:pagecheckerboard="0" />
  <metadata
     id="metadata5">
    <rdf:RDF>
      <cc:Work
         rdf:about="">
        <dc:format>image/svg+xml</dc:format>
        <dc:type
           rdf:resource="http://purl.org/dc/dcmitype/StillImage" />
      </cc:Work>
    </rdf:RDF>
  </metadata>
  <g
     inkscape:label="Layer 1"
     inkscape:groupmode="layer"
     id="layer1"
     transform="translate(1238.2883,429.74314)">
    <path
       style="fill:#000000;stroke-width:0.084651"
       d="m -1238.2883,-395.88276 v -33.86038 h 4.2326 4.2324 v 33.86038 33.86037 h -4.2324 -4.2326 z"
       id="path102" />
    <path
       style="fill:#000000;stroke-width:0.084651"
       d="m -1210.4735,-374.61422 c -0.028,-0.26771 -0.4515,-5.45787 -0.9398,-11.5337 -0.4883,-6.07581 -0.9092,-11.21004 -0.9353,-11.40941 l -0.048,-0.36248 -7.867,-3.93364 -7.8669,-3.93366 v -5.92556 -5.92557 l 7.8091,3.9152 7.809,3.91519 2.0675,0.0423 2.0675,0.0424 0.979,2.94162 0.9791,2.94162 h 1.991 1.9913 l 0.979,-2.94162 0.979,-2.94162 2.0674,-0.0424 2.0676,-0.0423 7.809,-3.91519 7.809,-3.9152 v 5.92557 5.92556 l -7.8668,3.93366 -7.867,3.93364 -0.048,0.36248 c -0.027,0.19937 -0.447,5.3336 -0.9353,11.40941 -0.4883,6.07583 -0.9112,11.26599 -0.9398,11.5337 l -0.051,0.48674 h -5.9936 -5.9936 z"
       id="path208" />
    <path
       style="fill:#000000;stroke-width:0.084651"
       d="m -1179.0327,-395.88276 v -33.86038 h 4.2326 4.2325 v 33.86038 33.86037 h -4.2325 -4.2326 z"
       id="path206" />
  </g>
</svg>
