<?xml version="1.0" encoding="UTF-8" standalone="no"?>
<!-- Created with Inkscape (http://www.inkscape.org/) -->

<svg
   inkscape:export-ydpi="96"
   inkscape:export-xdpi="96"
   inkscape:export-filename="C:\Users\SN\GitHub\Supernova-Shipyard-Source\Vectors - Ships\Titan 3.png"
   inkscape:version="1.1 (c68e22c387, 2021-05-23)"
   width="288.96646mm"
   height="288.96652mm"
   viewBox="0 0 288.96645 288.96653"
   version="1.1"
   id="svg8"
   sodipodi:docname="Titan 2.svg"
   xmlns:inkscape="http://www.inkscape.org/namespaces/inkscape"
   xmlns:sodipodi="http://sodipodi.sourceforge.net/DTD/sodipodi-0.dtd"
   xmlns="http://www.w3.org/2000/svg"
   xmlns:svg="http://www.w3.org/2000/svg"
   xmlns:rdf="http://www.w3.org/1999/02/22-rdf-syntax-ns#"
   xmlns:cc="http://creativecommons.org/ns#"
   xmlns:dc="http://purl.org/dc/elements/1.1/">
  <defs
     id="defs2" />
  <sodipodi:namedview
     id="base"
     pagecolor="#ffffff"
     bordercolor="#666666"
     borderopacity="1.0"
     inkscape:pageopacity="0.0"
     inkscape:pageshadow="2"
     inkscape:zoom="0.24748738"
     inkscape:cx="42.426406"
     inkscape:cy="252.53813"
     inkscape:document-units="mm"
     inkscape:current-layer="layer1"
     showgrid="false"
     inkscape:window-width="1920"
     inkscape:window-height="1017"
     inkscape:window-x="1912"
     inkscape:window-y="-8"
     inkscape:window-maximized="1"
     inkscape:pagecheckerboard="0" />
  <metadata
     id="metadata5">
    <rdf:RDF>
      <cc:Work
         rdf:about="">
        <dc:format>image/svg+xml</dc:format>
        <dc:type
           rdf:resource="http://purl.org/dc/dcmitype/StillImage" />
      </cc:Work>
    </rdf:RDF>
  </metadata>
  <g
     inkscape:label="Layer 1"
     inkscape:groupmode="layer"
     id="layer1"
     transform="translate(1160.0657,854.10715)">
    <path
       style="fill:#000000;stroke-width:0.361208"
       d="m -1160.0657,-709.62389 v -144.48326 h 18.0605 18.0603 v 144.48326 144.48326 h -18.0603 -18.0605 z"
       id="path102" />
    <path
       style="fill:#000000;stroke-width:0.361208"
       d="m -1050.0482,-643.43251 c -4.352,-21.80342 -8.0115,-39.926 -8.1321,-40.27241 -0.1733,-0.49697 -1.2837,0.43631 -5.2645,4.42481 l -5.045,5.05462 h -13.2792 -13.2792 v -70.61619 -70.61621 h 13.2655 13.2656 l 9.4159,9.39143 9.416,9.3914 h 8.5214 8.5214 l 4.2524,12.64229 4.2526,12.64228 h 8.5338 8.5337 l 4.2795,-12.64228 4.27951,-12.64229 h 8.51559 8.51564 l 9.41597,-9.3914 9.41596,-9.39143 h 13.26551 13.26551 v 70.61621 70.61619 h -13.27922 -13.27924 l -5.04495,-5.05462 c -3.9808,-3.9885 -5.09122,-4.92178 -5.26446,-4.42481 -0.12072,0.34641 -3.78024,18.46899 -8.1322,40.27241 l -7.91268,39.64261 h -26.55304 -26.5528 z"
       id="path206" />
    <path
       style="fill:#000000;stroke-width:0.361208"
       d="m -907.21998,-709.62389 v -144.48326 h 18.06031 18.06042 v 144.48326 144.48326 h -18.06042 -18.06031 z"
       id="path204" />
  </g>
</svg>
