<?xml version="1.0" encoding="UTF-8" standalone="no"?>
<!-- Created with Inkscape (http://www.inkscape.org/) -->

<svg
   inkscape:export-ydpi="96"
   inkscape:export-xdpi="96"
   inkscape:export-filename="C:\Users\SN\GitHub\Supernova-Shipyard-Source\Vectors - Ships\Cruiser 3.png"
   inkscape:version="1.1 (c68e22c387, 2021-05-23)"
   width="239.08266mm"
   height="239.08269mm"
   viewBox="0 0 239.08266 239.08269"
   version="1.1"
   id="svg8"
   sodipodi:docname="Cruiser 3.svg"
   xmlns:inkscape="http://www.inkscape.org/namespaces/inkscape"
   xmlns:sodipodi="http://sodipodi.sourceforge.net/DTD/sodipodi-0.dtd"
   xmlns="http://www.w3.org/2000/svg"
   xmlns:svg="http://www.w3.org/2000/svg"
   xmlns:rdf="http://www.w3.org/1999/02/22-rdf-syntax-ns#"
   xmlns:cc="http://creativecommons.org/ns#"
   xmlns:dc="http://purl.org/dc/elements/1.1/">
  <defs
     id="defs2" />
  <sodipodi:namedview
     id="base"
     pagecolor="#ffffff"
     bordercolor="#666666"
     borderopacity="1.0"
     inkscape:pageopacity="0.0"
     inkscape:pageshadow="2"
     inkscape:zoom="0.24748737"
     inkscape:cx="967.72614"
     inkscape:cy="224.25386"
     inkscape:document-units="mm"
     inkscape:current-layer="layer1"
     showgrid="false"
     inkscape:window-width="1920"
     inkscape:window-height="1017"
     inkscape:window-x="-8"
     inkscape:window-y="-8"
     inkscape:window-maximized="1"
     inkscape:pagecheckerboard="0" />
  <metadata
     id="metadata5">
    <rdf:RDF>
      <cc:Work
         rdf:about="">
        <dc:format>image/svg+xml</dc:format>
        <dc:type
           rdf:resource="http://purl.org/dc/dcmitype/StillImage" />
      </cc:Work>
    </rdf:RDF>
  </metadata>
  <g
     inkscape:label="Layer 1"
     inkscape:groupmode="layer"
     id="layer1"
     transform="translate(861.07993,423.26172)">
    <path
       style="fill:#000000;stroke-width:0.298853"
       d="m -861.07993,-303.72037 v -119.54135 h 14.94267 14.94269 v 119.54135 119.54133 h -14.94269 -14.94267 z"
       id="path102" />
    <path
       style="fill:#000000;stroke-width:0.298853"
       d="m -766.94103,-227.51255 -12.69835,-25.4023 6.34916,-12.70242 6.3491,-12.70242 v -25.40232 -25.40229 l -12.70132,-25.40114 -12.7012,-25.40116 v -12.70193 -12.70198 h 19.4254 c 10.68411,0 19.42553,0.0609 19.42553,0.13535 0,0.18431 5.65957,24.08749 5.85873,24.74417 0.1441,0.47522 0.70094,0.52302 6.09538,0.52302 5.39443,0 5.95126,-0.0477 6.09536,-0.52302 0.19918,-0.65668 5.85876,-24.55986 5.85876,-24.74417 0,-0.0743 8.7415,-0.13535 19.42551,-0.13535 h 19.42543 v 12.70198 12.70193 l -12.70124,25.40116 -12.7013,25.40114 v 25.40229 25.40232 l 6.34918,12.70242 6.34908,12.70242 -12.69833,25.4023 -12.69836,25.40231 h -12.70409 -12.7041 z"
       id="path206" />
    <path
       style="fill:#000000;stroke-width:0.298853"
       d="m -651.88254,-303.72037 v -119.54135 h 14.94257 14.9427 v 119.54135 119.54133 h -14.9427 -14.94257 z"
       id="path204" />
  </g>
</svg>
